<svg width="20" height="17" viewBox="0 0 20 17" fill="none" xmlns="http://www.w3.org/2000/svg">
<path d="M7.44189 12.7217H17.1289C17.4526 12.7217 17.7349 12.4561 17.7349 12.0991C17.7349 11.7422 17.4526 11.4766 17.1289 11.4766H7.58301C7.10986 11.4766 6.81934 11.1445 6.74463 10.6382L6.61182 9.7666H17.1455C18.3574 9.7666 18.98 9.01953 19.1543 7.83252L19.8184 3.44141C19.835 3.3335 19.8516 3.20068 19.8516 3.12598C19.8516 2.72754 19.5527 2.45361 19.0962 2.45361H5.54102L5.3833 1.39941C5.30029 0.760254 5.06787 0.436523 4.22119 0.436523H1.30762C0.975586 0.436523 0.693359 0.727051 0.693359 1.05908C0.693359 1.39941 0.975586 1.68994 1.30762 1.68994H4.11328L5.44141 10.8042C5.61572 11.9829 6.23828 12.7217 7.44189 12.7217ZM18.4404 3.70703L17.8511 7.68311C17.7847 8.19775 17.5107 8.51318 17.021 8.51318L6.4292 8.52148L5.72363 3.70703H18.4404ZM8.09766 16.7559C8.84473 16.7559 9.44238 16.1665 9.44238 15.4111C9.44238 14.6641 8.84473 14.0664 8.09766 14.0664C7.34229 14.0664 6.74463 14.6641 6.74463 15.4111C6.74463 16.1665 7.34229 16.7559 8.09766 16.7559ZM15.8589 16.7559C16.6143 16.7559 17.2119 16.1665 17.2119 15.4111C17.2119 14.6641 16.6143 14.0664 15.8589 14.0664C15.1118 14.0664 14.5059 14.6641 14.5059 15.4111C14.5059 16.1665 15.1118 16.7559 15.8589 16.7559Z" fill="white"/>
</svg>
