<svg width="15" height="15" viewBox="0 0 15 15" fill="none" xmlns="http://www.w3.org/2000/svg">
<path d="M12.8082 0H2.12513C0.918973 0 0 0.923077 0 2.13462V12.8654C0 14.0769 0.918973 15 2.12513 15H12.8082C14.0144 15 14.9333 14.0769 14.9333 12.8654V2.13462C14.9333 0.923077 14.0144 0 12.8082 0ZM7.46667 12C9.93641 12 11.9467 10.0385 11.9467 7.67308C11.9467 7.26923 11.8892 6.80769 11.7744 6.46154H13.0379V12.5769C13.0379 12.8654 12.8082 13.1538 12.4636 13.1538H2.46975C2.18257 13.1538 1.89539 12.9231 1.89539 12.5769V6.40385H3.21641C3.10154 6.80769 3.0441 7.21154 3.0441 7.61539C2.98667 10.0385 4.99692 12 7.46667 12ZM7.46667 10.2692C5.85846 10.2692 4.59487 9 4.59487 7.44231C4.59487 5.88462 5.85846 4.61538 7.46667 4.61538C9.07487 4.61538 10.3385 5.88462 10.3385 7.44231C10.3385 9.05769 9.07487 10.2692 7.46667 10.2692ZM12.9805 4.09615C12.9805 4.44231 12.6933 4.73077 12.3487 4.73077H10.7405C10.3959 4.73077 10.1087 4.44231 10.1087 4.09615V2.53846C10.1087 2.19231 10.3959 1.90385 10.7405 1.90385H12.3487C12.6933 1.90385 12.9805 2.19231 12.9805 2.53846V4.09615Z" fill="white"/>
</svg>
